<svg id="Layer_1" data-name="Layer 1" xmlns="http://www.w3.org/2000/svg" viewBox="0 0 238.89 75.56">
    <defs>
        <style>.cls-1{fill:#fff;stroke:#000;stroke-miterlimit:10;}.cls-2{fill:#fbb03b;}</style>
    </defs>
    <path class="cls-1" d="M65.82,74.08,61.21,60.83H40.69L36.23,74.08H28.67L47.1,24.19H55L73.45,74.08ZM42.56,55.29H59.34L50.91,30.81Z" transform="translate(-27.95 -20.3)" />
    <path class="cls-1" d="M104.7,74.08l-.94-3.74a17.28,17.28,0,0,1-5.4,3.34,16.41,16.41,0,0,1-6.12,1.19,14.38,14.38,0,0,1-8-2.23,14.82,14.82,0,0,1-5.4-6.52A24.19,24.19,0,0,1,76.91,56a25.82,25.82,0,0,1,1.87-10.22,15.62,15.62,0,0,1,5.36-6.85,14.13,14.13,0,0,1,8.32-2.44,16.84,16.84,0,0,1,11,4V20.8h7.13V74.08Zm-10.3-5a15.51,15.51,0,0,0,9.07-3.31V45.43A14.83,14.83,0,0,0,94,42.26q-9.8,0-9.79,13.53Q84.18,69.11,94.4,69.11Z" transform="translate(-27.95 -20.3)" />
    <path class="cls-1" d="M142.71,74.08l-.57-3.74a19.55,19.55,0,0,1-5.73,3.45A16.88,16.88,0,0,1,130.19,75,11.39,11.39,0,0,1,122,72.1,10.28,10.28,0,0,1,119,64.29a10.38,10.38,0,0,1,3.75-8.39q3.73-3.13,10.08-3.13A37.91,37.91,0,0,1,141.85,54V49.24q0-3.89-1.76-5.47c-1.18-1.06-3.18-1.58-6-1.58a39.15,39.15,0,0,0-12.67,2.23v-5a23.89,23.89,0,0,1,6.34-2.13,38.31,38.31,0,0,1,7.56-.75q6.84,0,10.08,2.84T148.62,48V74.08Zm-10.8-4.46A16.93,16.93,0,0,0,141.85,66V58.6a31.56,31.56,0,0,0-7.63-.93q-8.15,0-8.14,6.26a5.64,5.64,0,0,0,1.51,4.21A6,6,0,0,0,131.91,69.62Z" transform="translate(-27.95 -20.3)" />
    <path class="cls-1" d="M156.46,74.08V68.61l21-25.42H157.18V37.58h28.16V43L164.1,68.46h21.45v5.62Z" transform="translate(-27.95 -20.3)" />
    <path class="cls-1" d="M208.3,75.16q-8.2,0-12.81-5.11t-4.61-14.26q0-9.06,4.61-14.18T208.3,36.5q8.22,0,12.82,5.11t4.61,14.18q0,9.15-4.61,14.26T208.3,75.16Zm0-5.76q10.15,0,10.16-13.61T208.3,42.26q-10.14,0-10.15,13.53T208.3,69.4Z" transform="translate(-27.95 -20.3)" />
    <path class="cls-1" d="M259.21,74.08V49.67q0-3.81-1.55-5.61t-4.86-1.8a19.82,19.82,0,0,0-11.16,3.67V74.08h-7.13V37.58h6l.72,4a23.67,23.67,0,0,1,14.4-5.11q5.25,0,8,2.77c1.82,1.85,2.74,4.52,2.74,8V74.08Z" transform="translate(-27.95 -20.3)" />
    <path class="cls-2" d="M48.34,74.19a64.91,64.91,0,0,0,17.49,13A75,75,0,0,0,88,94c16.11,2.55,33,3.1,48.61-2.36,8.44-3,16.37-7.16,24.25-11.35a1.52,1.52,0,0,0-.36-2.74l-13.26-2.44-.8,2.89a44.64,44.64,0,0,1,13.44,4.15l-.54-2.05a44,44,0,0,0-3.5,9.3c-.47,1.88,2.43,2.67,2.89.8a40.35,40.35,0,0,1,3.2-8.59,1.52,1.52,0,0,0-.54-2,46.67,46.67,0,0,0-14.15-4.45c-1.87-.28-2.73,2.53-.8,2.89l13.26,2.44-.36-2.74a190.56,190.56,0,0,1-20.76,10,73.42,73.42,0,0,1-22.7,5,132.19,132.19,0,0,1-24-1.15,78,78,0,0,1-22.08-5.81A62.57,62.57,0,0,1,50.46,72.07c-1.34-1.4-3.46.73-2.12,2.12Z" transform="translate(-27.95 -20.3)" />
</svg>