<svg xmlns="http://www.w3.org/2000/svg" viewBox="0 0 100 100">
    <defs>
        <style>.cls-1{fill:#fff;}.cls-2{fill:#ff5c9d;}</style>
    </defs>
    <g id="Layer_1" data-name="Layer 1">
        <rect class="cls-1" width="100" height="100" />
    </g>
    <g id="Layer_3" data-name="Layer 3">
        <path class="cls-2" d="M36.46,27.23a61.36,61.36,0,0,1,11.45-1c6.26,0,10.3,1.08,13.32,3.53a10.16,10.16,0,0,1,4,8.56c0,4.68-3.09,8.79-8.21,10.66v.14c4.61,1.16,10,5,10,12.17A13.05,13.05,0,0,1,63,71c-3.39,3.1-8.86,4.54-16.78,4.54A72.76,72.76,0,0,1,36.46,75Zm6.27,19.88h5.68c6.63,0,10.52-3.46,10.52-8.14,0-5.69-4.32-7.92-10.66-7.92a27.26,27.26,0,0,0-5.54.43Zm0,23.26a34.31,34.31,0,0,0,5.25.28c6.48,0,12.46-2.37,12.46-9.43,0-6.62-5.69-9.36-12.53-9.36H42.73Z" transform="translate(0)" />
    </g>
</svg>