<svg xmlns="http://www.w3.org/2000/svg" viewBox="0 0 100 100">
    <defs>
        <style>.cls-1{fill:#fff;}</style>
    </defs>
    <g id="Layer_1" data-name="Layer 1">
        <rect class="cls-1" width="100" height="100" />
    </g>
    <g id="Layer_3" data-name="Layer 3">
        <path d="M71.16,73a45.24,45.24,0,0,1-14.91,2.66c-7.34,0-13.39-1.87-18.15-6.41-4.17-4-6.76-10.51-6.76-18.07.07-14.47,10-25.06,26.28-25.06a30.17,30.17,0,0,1,12.1,2.23L68.2,33.43a25.17,25.17,0,0,0-10.73-2.09C45.67,31.34,38,38.68,38,50.85s7.42,19.59,18.72,19.59c4.11,0,6.92-.58,8.36-1.3V54.67H55.17v-5h16Z" transform="translate(0)" />
    </g>
</svg>